<?xml version="1.0" standalone="no"?>
<!DOCTYPE svg PUBLIC "-//W3C//DTD SVG 20010904//EN"
 "http://www.w3.org/TR/2001/REC-SVG-20010904/DTD/svg10.dtd">
<svg version="1.0" xmlns="http://www.w3.org/2000/svg"
 width="1170.000000pt" height="1190.000000pt" viewBox="0 0 1170.000000 1190.000000"
 preserveAspectRatio="xMidYMid meet">

<g transform="translate(0.000000,1190.000000) scale(0.100000,-0.100000)"
fill="#000000" stroke="none">
<path d="M5400 10950 c-327 -22 -680 -78 -918 -146 -259 -73 -316 -90 -414
-125 -194 -69 -381 -149 -583 -251 -110 -55 -207 -106 -215 -113 -8 -7 -42
-27 -75 -46 -84 -46 -366 -235 -465 -311 -275 -213 -589 -507 -776 -729 -49
-58 -109 -129 -134 -159 -25 -29 -49 -60 -54 -69 -5 -9 -35 -50 -66 -91 -122
-163 -301 -455 -405 -660 -114 -223 -177 -370 -251 -580 -30 -85 -62 -172 -70
-194 -23 -60 -110 -415 -144 -584 -66 -336 -74 -434 -74 -907 -1 -304 3 -456
12 -520 7 -49 20 -135 28 -190 47 -333 145 -720 256 -1015 78 -208 94 -246
224 -515 184 -384 497 -828 832 -1184 272 -288 606 -563 958 -790 50 -32 113
-71 140 -86 27 -15 78 -44 114 -65 60 -35 230 -119 410 -202 41 -19 116 -50
165 -67 50 -18 118 -44 153 -58 95 -37 269 -92 342 -108 36 -8 81 -19 100 -25
120 -33 371 -85 535 -110 356 -55 1061 -52 1427 4 112 18 305 56 428 86 47 12
114 27 150 35 36 8 126 35 200 59 122 39 180 60 360 129 90 34 430 195 500
236 36 21 90 52 121 69 83 45 370 233 480 315 216 161 367 293 580 507 368
371 650 761 896 1238 110 215 267 594 308 747 7 28 25 88 38 135 128 433 191
888 191 1375 -1 427 -48 819 -145 1200 -20 76 -32 120 -94 330 -101 340 -375
904 -600 1234 -252 368 -575 736 -870 987 -44 38 -89 77 -100 87 -11 10 -53
43 -95 75 -41 31 -77 59 -80 62 -3 3 -21 17 -40 30 -19 14 -44 33 -55 43 -11
10 -33 26 -50 34 -16 9 -59 36 -95 62 -330 234 -883 496 -1305 620 -240 70
-525 133 -720 160 -291 40 -784 60 -1055 41z m595 -295 c374 -25 701 -78 970
-157 349 -101 657 -220 885 -340 176 -93 245 -131 260 -142 8 -7 58 -39 110
-71 110 -68 273 -183 278 -196 2 -5 9 -9 15 -9 6 0 42 -26 81 -58 39 -32 107
-87 151 -122 114 -92 475 -455 576 -580 47 -58 93 -115 101 -125 191 -235 413
-602 562 -930 92 -201 109 -244 175 -442 85 -252 115 -366 160 -601 65 -336
91 -596 91 -902 0 -361 -50 -768 -140 -1141 -32 -128 -147 -492 -181 -566 -10
-24 -19 -45 -19 -47 0 -13 -136 -311 -172 -376 -23 -41 -59 -109 -81 -150 -22
-41 -48 -86 -57 -100 -10 -14 -20 -34 -24 -46 -3 -11 -14 -29 -24 -40 -10 -10
-40 -55 -67 -99 -27 -44 -65 -101 -85 -127 -19 -25 -53 -71 -74 -102 -22 -31
-47 -64 -55 -74 -9 -9 -33 -38 -54 -64 -21 -26 -43 -53 -50 -60 -7 -7 -23 -26
-35 -43 -22 -28 -155 -175 -212 -234 -188 -193 -486 -444 -680 -574 -41 -28
-91 -62 -110 -77 -19 -15 -61 -41 -93 -59 -32 -17 -73 -42 -90 -55 -29 -22
-240 -134 -362 -193 -27 -13 -58 -28 -67 -33 -28 -16 -410 -167 -448 -178 -19
-6 -80 -23 -135 -40 -376 -112 -584 -151 -980 -187 -186 -17 -593 -20 -733 -5
-53 6 -144 15 -202 21 -259 26 -497 74 -808 165 -137 41 -248 80 -483 172
-110 44 -407 194 -534 270 -156 94 -450 293 -475 322 -3 3 -34 28 -70 55 -223
169 -580 526 -747 745 -23 30 -50 64 -60 75 -11 11 -40 51 -66 88 -26 37 -69
98 -95 135 -27 37 -65 96 -87 132 -21 36 -54 90 -74 120 -67 104 -223 424
-296 604 -85 212 -102 260 -149 421 -140 480 -189 827 -189 1345 0 483 52 877
167 1263 19 61 42 139 51 172 34 121 163 442 244 605 84 168 170 330 186 350
7 8 31 48 55 89 81 141 283 412 442 594 73 84 280 299 323 336 16 14 58 53 93
85 35 33 77 70 94 82 16 12 46 37 66 56 21 18 62 51 92 74 174 129 250 183
309 221 128 80 247 151 306 183 142 77 244 128 295 149 30 13 73 31 95 41 445
200 1016 337 1560 375 246 17 326 17 570 0z"/>
<path d="M5375 10283 c-244 -21 -487 -59 -675 -107 -129 -32 -365 -102 -440
-131 -75 -28 -178 -70 -235 -95 -178 -80 -217 -99 -295 -141 -182 -100 -229
-128 -355 -212 -420 -280 -786 -628 -1081 -1029 -70 -95 -194 -275 -194 -281
0 -3 -27 -51 -61 -108 -67 -113 -175 -327 -231 -459 -83 -196 -208 -575 -208
-632 0 -17 48 -18 859 -18 l858 0 76 154 c81 163 213 368 318 495 141 169 412
417 544 496 19 11 66 39 104 63 l69 43 20 77 c27 104 35 142 27 142 -12 0
-112 -54 -177 -96 -37 -24 -82 -51 -100 -60 -47 -24 -219 -155 -313 -237 -263
-232 -513 -550 -644 -824 l-55 -113 -703 0 c-575 0 -703 2 -703 13 0 34 68
224 166 463 27 66 140 293 193 387 235 420 623 876 1001 1177 24 19 62 50 84
69 23 19 66 50 96 70 30 20 84 57 120 83 90 64 346 212 460 265 261 123 301
139 520 211 219 72 358 108 500 132 30 5 82 14 115 20 253 45 621 67 868 51
181 -12 292 -23 397 -41 30 -5 87 -14 125 -20 214 -35 412 -87 675 -180 150
-52 159 -56 347 -146 62 -30 116 -54 119 -54 3 0 44 -22 91 -50 47 -27 89 -50
94 -50 5 0 9 -4 9 -8 0 -4 21 -18 46 -30 122 -60 485 -330 659 -492 77 -72
266 -265 305 -313 14 -16 40 -46 58 -66 101 -110 321 -425 434 -621 133 -231
358 -766 358 -851 0 -19 -18 -19 -703 -19 l-703 0 -15 33 c-80 171 -192 360
-277 467 -225 284 -378 434 -617 606 -79 57 -319 204 -333 204 -11 0 -26 -165
-17 -180 3 -5 36 -27 73 -49 95 -56 238 -156 323 -225 93 -77 256 -240 339
-339 108 -131 250 -354 325 -510 l70 -146 863 0 c541 -1 862 3 862 9 0 42
-144 481 -208 635 -40 96 -194 398 -247 485 -32 52 -63 105 -70 116 -29 55
-213 308 -324 445 -62 77 -212 238 -327 351 -324 317 -794 639 -1164 798 -41
18 -100 44 -130 57 -127 58 -256 102 -525 182 -325 95 -702 142 -1130 139
-148 -1 -288 -3 -310 -5z"/>
<path d="M5725 9787 c-4 -14 0 -53 8 -88 20 -82 47 -225 47 -245 0 -12 -9 -14
-40 -11 -32 3 -43 0 -50 -14 -15 -28 -13 -29 44 -29 40 0 55 -4 60 -16 11 -28
6 -67 -10 -85 -9 -10 -13 -22 -10 -27 3 -5 61 -12 128 -15 68 -4 148 -11 178
-16 101 -18 144 -18 148 1 2 10 -5 19 -19 23 -20 7 -21 11 -15 69 6 53 23 159
56 345 16 88 16 89 -37 96 -27 4 -72 11 -102 17 -63 12 -83 -2 -52 -37 19 -20
18 -25 -16 -230 -35 -206 -38 -223 -48 -214 -4 5 -45 198 -71 339 -8 41 -17
93 -22 115 l-7 40 -82 3 c-80 3 -83 2 -88 -21z"/>
<path d="M5327 9793 c-22 -4 -28 -9 -25 -26 2 -14 11 -23 25 -25 27 -4 43 -47
43 -118 0 -43 -4 -56 -20 -66 -28 -18 -25 -40 9 -60 26 -14 30 -23 36 -80 9
-85 4 -111 -22 -123 -13 -5 -23 -18 -23 -27 0 -15 9 -18 45 -18 25 0 61 6 79
14 25 10 52 12 106 6 41 -4 79 -6 87 -3 19 7 16 31 -6 42 -10 6 -21 17 -24 24
-5 13 24 123 57 217 16 46 22 131 9 144 -6 6 -52 -133 -98 -296 -18 -63 -37
-79 -28 -24 3 19 3 46 -1 60 -10 41 -54 85 -92 92 -46 8 -50 19 -14 34 45 19
70 60 70 115 0 40 -5 52 -31 76 -45 42 -99 54 -182 42z"/>
<path d="M5118 9771 c-63 -9 -78 -24 -45 -45 23 -16 25 -25 36 -149 7 -73 16
-168 20 -212 7 -72 6 -82 -11 -101 -32 -36 -7 -44 101 -34 51 5 95 11 97 13 3
2 -7 119 -21 259 -14 140 -25 260 -25 266 0 13 -71 14 -152 3z"/>
<path d="M6290 9737 c0 -14 7 -28 16 -31 14 -5 15 -16 10 -69 -12 -102 -17
-118 -42 -129 -27 -13 -31 -40 -9 -58 13 -11 15 -29 9 -106 l-7 -93 31 -30
c26 -26 38 -31 79 -31 28 0 87 -13 138 -30 49 -16 96 -30 104 -30 11 0 26 30
49 103 18 56 53 165 77 242 25 77 45 147 45 155 0 17 -145 70 -188 70 -22 0
-30 -24 -12 -35 6 -3 10 -18 10 -33 0 -26 -97 -342 -109 -353 -3 -4 -17 -10
-30 -14 l-24 -7 8 66 c8 79 -3 103 -62 131 l-38 19 30 6 c78 17 109 53 110
130 0 52 -4 62 -30 89 -27 29 -52 39 -132 56 -30 6 -33 4 -33 -18z"/>
<path d="M4720 9686 c-50 -18 -66 -28 -68 -44 -3 -19 1 -22 33 -22 41 0 81
-18 109 -49 23 -26 46 -27 46 -3 0 27 -37 136 -46 138 -5 1 -38 -8 -74 -20z"/>
<path d="M4510 9616 c-63 -21 -95 -37 -95 -46 0 -8 10 -16 22 -18 17 -3 25
-14 34 -45 6 -23 27 -89 45 -146 19 -57 34 -105 34 -107 0 -1 -7 -4 -16 -6
-13 -2 -17 -17 -19 -66 -2 -47 -8 -72 -24 -93 -21 -28 -28 -59 -13 -59 21 0
297 99 296 107 -1 4 -29 94 -62 198 -34 105 -68 216 -77 247 -9 32 -19 59 -23
62 -4 2 -50 -10 -102 -28z"/>
<path d="M6827 9623 c-13 -12 -7 -41 9 -47 37 -14 -11 -168 -54 -174 -30 -5
-39 -28 -18 -51 20 -22 20 -45 -1 -112 -20 -65 -39 -89 -70 -89 -17 0 -23 -6
-23 -23 0 -20 8 -25 51 -35 67 -16 102 -15 144 2 90 38 101 174 19 233 l-27
20 41 7 c25 4 55 18 77 37 31 27 35 37 35 79 0 62 -33 104 -107 137 -58 25
-66 27 -76 16z"/>
<path d="M4750 9497 c0 -18 -7 -42 -15 -55 -12 -16 -13 -26 -5 -42 6 -11 17
-20 24 -20 7 0 25 -14 40 -31 36 -40 54 -27 38 28 -6 21 -18 64 -27 96 -13 44
-21 57 -36 57 -15 0 -19 -7 -19 -33z"/>
<path d="M7090 9520 c0 -6 5 -19 12 -29 10 -17 -2 -48 -83 -215 -82 -170 -97
-195 -119 -198 -47 -6 -26 -32 59 -75 47 -24 90 -43 96 -43 7 0 31 42 55 93
24 50 74 156 111 234 38 78 69 147 69 153 0 13 -153 90 -180 90 -11 0 -20 -5
-20 -10z"/>
<path d="M4220 9508 c-166 -74 -192 -89 -180 -103 6 -7 21 -15 33 -17 16 -2
28 -21 53 -83 32 -83 56 -138 105 -239 49 -100 36 -129 -19 -45 -18 28 -38 49
-45 46 -7 -2 -12 -26 -13 -60 0 -42 -6 -65 -22 -87 -46 -62 -23 -82 48 -40 50
29 141 74 227 111 l42 18 -15 37 c-8 20 -33 75 -55 123 -22 47 -59 131 -81
185 -39 95 -40 100 -25 126 24 40 1 52 -53 28z"/>
<path d="M7317 9406 c-3 -8 5 -24 19 -37 25 -24 44 -75 44 -121 0 -51 29 -32
60 38 17 36 30 69 30 73 0 8 -115 61 -134 61 -8 0 -16 -6 -19 -14z"/>
<path d="M3908 9357 c-59 -34 -66 -41 -56 -57 10 -15 20 -18 60 -13 41 5 54 2
89 -21 61 -41 69 -22 24 58 -20 36 -40 67 -43 69 -4 2 -37 -14 -74 -36z"/>
<path d="M4887 9343 c-4 -3 -7 -22 -7 -40 0 -43 -22 -85 -54 -107 -26 -16 -34
-40 -18 -50 9 -5 136 34 147 46 8 7 -24 127 -38 146 -11 13 -20 15 -30 5z"/>
<path d="M7494 9304 c6 -31 1 -46 -51 -127 -31 -51 -71 -113 -89 -138 -17 -25
-39 -60 -49 -78 -22 -44 -29 -34 -9 14 22 53 6 65 -40 30 -26 -20 -53 -29 -94
-34 -85 -9 -81 -29 17 -75 44 -20 105 -55 135 -76 110 -77 152 -86 125 -27
-13 29 -13 29 97 197 80 123 144 228 144 238 0 10 -161 112 -178 112 -11 0
-13 -8 -8 -36z"/>
<path d="M3748 9260 c-27 -17 -51 -30 -55 -30 -5 0 -21 -11 -37 -23 -32 -26
-29 -47 8 -47 17 0 33 -18 71 -82 27 -46 78 -131 113 -189 55 -92 62 -110 53
-128 -7 -12 -22 -21 -35 -21 -19 0 -49 35 -151 170 -112 151 -126 174 -120
199 3 16 2 32 -4 35 -9 6 -106 -57 -183 -118 -27 -20 -23 -46 7 -46 25 0 28
-4 149 -165 140 -188 134 -178 129 -212 -9 -57 15 -45 189 97 20 17 39 30 42
30 4 0 151 86 165 96 2 2 -24 47 -57 101 -33 54 -68 114 -79 133 -42 80 -139
230 -148 230 -5 0 -31 -14 -57 -30z"/>
<path d="M7281 9230 c-13 -11 -32 -20 -42 -20 -24 0 -42 -33 -27 -48 7 -7 12
-31 12 -54 1 -35 5 -43 19 -43 13 0 28 22 53 79 19 44 34 85 34 93 0 19 -21
16 -49 -7z"/>
<path d="M3980 9213 c-1 -5 -2 -35 -5 -68 -4 -67 5 -85 44 -85 14 0 35 -7 45
-15 23 -17 46 -20 46 -5 0 21 -102 180 -115 180 -8 0 -15 -3 -15 -7z"/>
<path d="M7705 9200 c-3 -5 -3 -25 1 -44 5 -29 0 -43 -30 -89 -43 -65 -53 -74
-86 -79 -23 -3 -25 -7 -22 -47 2 -33 -3 -51 -21 -75 -34 -44 -57 -91 -57 -116
0 -38 33 -80 80 -102 25 -12 49 -28 53 -35 4 -7 16 -13 26 -13 10 0 30 -18 45
-40 26 -40 50 -51 59 -27 2 6 1 21 -4 32 -13 33 -10 91 7 141 23 67 7 74 -52
23 -57 -49 -67 -39 -24 24 16 25 30 55 30 66 0 24 -26 69 -50 88 -12 9 -3 11
42 6 57 -6 58 -5 97 34 52 52 61 96 31 159 -13 26 -40 58 -63 75 -43 31 -53
34 -62 19z"/>
<path d="M7908 8950 c-46 -25 -75 -61 -89 -113 -13 -49 -3 -97 41 -188 16 -35
30 -74 30 -86 0 -30 -42 -57 -76 -49 -25 7 -54 -7 -54 -25 0 -17 85 -51 130
-52 58 -1 129 38 159 87 32 51 28 124 -10 205 -57 120 -47 171 33 171 30 0 38
4 38 18 0 47 -134 68 -202 32z"/>
<path d="M3270 8900 c-92 -50 -116 -103 -45 -98 31 2 41 -4 80 -47 39 -44 44
-55 42 -90 l-2 -40 36 3 c32 2 41 -4 93 -58 53 -55 58 -64 52 -94 -10 -53 13
-63 51 -23 58 62 73 92 73 146 0 46 -4 55 -41 92 -38 38 -44 41 -87 36 -26 -2
-57 -8 -69 -12 -23 -7 -23 -7 -8 29 19 45 19 70 -1 112 -30 62 -105 81 -174
44z"/>
<path d="M5650 8894 c-19 -2 -86 -9 -148 -15 -92 -9 -125 -16 -185 -44 -39
-18 -116 -51 -169 -73 -53 -22 -125 -60 -160 -85 -90 -64 -198 -173 -235 -237
-37 -63 -68 -192 -79 -322 -6 -79 -5 -88 10 -88 10 0 14 -5 11 -10 -4 -6 -1
-17 5 -25 8 -10 9 -15 2 -15 -11 0 -9 -71 3 -90 4 -6 -5 -10 -21 -10 -15 0
-51 -12 -80 -26 -36 -18 -87 -30 -161 -40 -127 -16 -180 -34 -217 -73 -36 -37
-43 -90 -22 -172 21 -78 37 -99 61 -75 26 26 30 20 27 -39 l-4 -55 34 0 c27
-1 30 -2 16 -11 -10 -5 -18 -17 -18 -25 0 -8 -7 -17 -15 -20 -11 -4 -15 -21
-15 -56 0 -46 2 -50 21 -45 16 4 19 2 13 -11 -14 -32 -7 -67 24 -117 17 -27
40 -67 52 -87 11 -20 30 -47 42 -60 50 -53 154 -118 188 -118 17 0 19 5 14 44
-17 122 26 191 159 254 79 38 229 82 280 82 13 0 37 4 53 10 22 7 623 22 808
20 16 0 40 -9 55 -19 23 -17 72 -27 94 -21 19 6 73 5 82 -1 6 -4 55 -8 110 -8
55 0 125 0 155 0 33 0 63 -6 75 -15 11 -9 37 -16 57 -16 58 0 143 -37 210 -91
91 -73 178 -158 178 -175 0 -25 28 -27 72 -6 24 11 66 24 93 28 71 10 146 70
192 154 20 36 55 97 77 135 23 39 47 83 54 98 26 60 7 140 -45 189 -33 32
-172 118 -189 118 -7 0 -14 3 -16 8 -4 8 -77 37 -170 65 -37 11 -82 32 -99 47
-32 26 -32 27 -41 156 -9 145 -22 212 -72 372 -53 169 -89 232 -197 342 -119
122 -316 213 -538 250 -112 18 -359 32 -431 24z"/>
<path d="M8124 8886 c-3 -9 -2 -35 4 -57 8 -30 7 -54 -3 -92 -13 -49 -11 -77
5 -77 4 0 33 27 64 60 60 62 71 98 29 92 -16 -2 -26 5 -36 25 -8 15 -24 37
-36 47 -19 17 -21 17 -27 2z"/>
<path d="M3066 8726 c-80 -75 -89 -98 -37 -94 22 2 40 -11 93 -68 74 -78 99
-106 147 -160 19 -22 43 -49 55 -62 12 -14 19 -34 18 -52 -3 -45 16 -38 99 39
l74 68 -39 44 c-56 62 -222 243 -281 306 l-50 53 -79 -74z"/>
<path d="M8296 8733 c-3 -3 -6 -18 -6 -32 0 -15 -10 -35 -22 -45 -47 -39 -105
-91 -187 -165 -98 -89 -108 -96 -141 -96 -14 0 -25 -5 -25 -12 0 -19 145 -185
158 -180 7 2 13 15 15 29 4 30 34 64 122 138 36 29 75 64 87 75 59 60 111 95
142 95 18 0 31 5 31 13 -1 14 -131 166 -153 178 -8 5 -17 6 -21 2z"/>
<path d="M2895 8521 c-46 -21 -80 -55 -70 -70 3 -6 21 -11 39 -11 33 0 81 -33
215 -148 30 -26 72 -59 93 -75 39 -28 59 -62 51 -83 -7 -20 30 -27 44 -8 28
39 29 177 1 225 -83 143 -258 223 -373 170z"/>
<path d="M8474 8515 c-3 -8 -3 -19 1 -25 7 -11 -60 -83 -113 -119 l-33 -23
-19 22 c-18 21 -40 20 -40 -2 0 -6 7 -19 16 -29 20 -22 19 -25 -64 -93 -43
-34 -79 -56 -94 -56 -38 0 -40 -9 -9 -54 73 -104 177 -181 156 -115 -8 25 6
42 135 154 52 46 113 99 135 119 28 25 50 36 73 36 55 0 40 30 -77 153 -48 50
-58 55 -67 32z"/>
<path d="M2766 8390 c-45 -113 14 -259 136 -336 52 -33 142 -55 192 -48 41 7
136 51 136 64 0 16 -30 31 -48 26 -20 -7 -35 3 -143 89 -144 115 -219 187
-219 210 0 18 -16 35 -35 35 -1 0 -10 -18 -19 -40z"/>
<path d="M2617 8193 c-37 -59 -77 -129 -77 -135 0 -2 35 -26 78 -53 42 -26
100 -62 127 -80 28 -18 84 -52 125 -76 58 -34 76 -50 78 -69 5 -46 11 -54 27
-40 24 20 125 189 125 210 0 22 -20 26 -37 9 -11 -11 -101 38 -295 163 -77 49
-98 67 -98 85 0 35 -27 28 -53 -14z"/>
<path d="M8541 8214 c-85 -23 -199 -121 -222 -191 -13 -40 -8 -168 7 -183 16
-16 41 -2 48 28 6 31 9 33 203 158 120 78 152 94 184 94 32 0 39 4 39 19 0 41
-102 91 -180 90 -14 0 -49 -7 -79 -15z"/>
<path d="M8804 8083 c-12 -40 -27 -53 -190 -161 -147 -98 -173 -113 -201 -108
-21 3 -36 -1 -44 -10 -9 -12 -6 -19 17 -40 52 -46 85 -57 160 -57 82 1 149 29
219 94 81 75 118 197 83 274 -13 29 -36 33 -44 8z"/>
<path d="M2630 7941 c5 -11 20 -27 32 -35 36 -25 16 -27 -78 -6 -138 30 -132
33 -187 -67 -52 -92 -52 -120 -2 -93 26 14 107 0 423 -71 138 -31 140 -28 45
74 -38 40 -84 90 -104 113 -43 48 -146 116 -129 85z"/>
<path d="M8937 7863 c-4 -3 -7 -14 -7 -24 0 -18 -21 -30 -298 -159 -85 -40
-94 -42 -118 -30 -21 12 -27 12 -34 0 -5 -8 -5 -21 -1 -29 5 -9 28 -56 51
-106 54 -112 73 -128 82 -66 3 25 24 38 163 101 145 67 275 133 275 141 0 4
-19 46 -41 93 -39 79 -55 97 -72 79z"/>
<path d="M2640 7636 c121 -76 137 -91 144 -131 4 -19 13 -35 20 -35 7 0 30 27
51 61 43 70 38 89 -18 68 -34 -12 -39 -11 -96 24 -65 40 -131 67 -165 67 -14
0 8 -19 64 -54z"/>
<path d="M9042 7638 c-7 -7 -12 -21 -12 -33 0 -15 -14 -28 -53 -48 -91 -46
-134 -58 -163 -45 -39 18 -47 -1 -21 -52 43 -87 120 -115 213 -78 47 18 63 31
81 63 27 48 29 115 5 164 -19 39 -32 47 -50 29z"/>
<path d="M5044 7085 c-10 -8 -27 -15 -36 -15 -10 0 -18 -4 -18 -10 0 -5 8 -10
18 -11 9 -1 0 -6 -21 -13 -30 -9 -35 -14 -25 -24 10 -10 8 -14 -10 -18 -12 -4
-22 -10 -22 -14 0 -13 47 -21 72 -11 13 4 57 11 98 15 41 4 77 12 81 17 8 13
56 -13 70 -38 7 -12 26 -28 43 -36 17 -8 54 -25 83 -37 63 -28 81 -55 31 -47
-18 3 -51 10 -73 16 -50 13 -125 14 -125 1 0 -5 13 -7 28 -4 46 9 147 -24 189
-63 l38 -34 -85 7 c-155 13 -231 10 -287 -11 -29 -10 -53 -23 -53 -27 0 -4 -7
-8 -15 -8 -8 0 -15 -4 -15 -10 0 -5 -4 -10 -10 -10 -18 0 -10 36 13 57 12 11
38 26 57 33 42 16 100 52 100 62 0 4 -13 2 -30 -3 -16 -5 -43 -13 -58 -18 -61
-19 -110 -52 -131 -87 -19 -32 -21 -42 -11 -92 5 -31 10 -57 10 -60 0 -2 13 6
29 17 16 12 33 21 37 21 4 0 23 16 41 37 36 39 47 37 58 -9 6 -22 4 -28 -9
-28 -9 0 -16 -7 -16 -15 0 -18 17 -20 23 -2 3 9 9 9 30 -2 31 -17 63 -17 109
-2 26 9 40 22 53 50 20 46 13 65 -21 57 -17 -5 -24 -2 -24 8 0 18 42 28 78 20
68 -17 106 -56 67 -70 -32 -13 -14 -26 25 -20 40 6 50 0 29 -21 -5 -5 -9 -29
-7 -52 l3 -42 40 53 c85 114 91 147 44 247 -39 83 -56 99 -121 112 -149 30
-158 32 -158 48 0 9 14 25 30 34 32 19 35 24 21 46 -14 21 -240 27 -267 6z"/>
<path d="M6191 7043 c-27 -5 -29 -7 -92 -63 -52 -45 -79 -94 -61 -112 6 -6 8
-24 5 -39 -5 -28 -4 -29 36 -29 36 0 41 3 41 23 0 24 37 67 58 67 7 0 12 -9
12 -20 0 -78 74 -101 178 -53 26 12 32 21 32 45 0 30 -1 30 -40 24 -32 -5 -40
-3 -40 9 0 20 80 21 118 1 46 -23 82 -28 82 -12 0 38 -117 71 -230 63 -41 -3
-84 -8 -96 -12 -15 -5 -21 -2 -21 9 0 9 9 18 19 22 14 4 17 11 12 31 -6 21 -4
25 9 20 9 -3 17 -1 20 6 2 6 28 14 58 18 l54 6 -65 0 c-36 0 -76 -2 -89 -4z"/>
<path d="M6368 7033 c6 -2 18 -2 25 0 6 3 1 5 -13 5 -14 0 -19 -2 -12 -5z"/>
<path d="M6475 6995 c20 -15 39 -24 42 -22 5 5 -60 47 -72 47 -4 0 9 -11 30
-25z"/>
<path d="M2524 6920 c-69 -337 -75 -369 -94 -535 -5 -49 -14 -153 -20 -230 -6
-76 -13 -141 -15 -144 -3 -2 -5 2 -5 10 0 15 -5 10 -125 -136 -44 -54 -108
-132 -142 -173 -35 -42 -63 -79 -63 -84 0 -12 -25 -10 -56 7 -59 31 -138 10
-197 -52 -36 -38 -47 -80 -47 -179 0 -74 -2 -83 -26 -105 -22 -21 -35 -24 -95
-24 -38 0 -69 -3 -69 -7 0 -14 86 -30 145 -26 49 3 70 10 105 36 25 17 61 35
80 38 51 10 90 32 127 73 41 45 56 89 51 147 -3 44 -1 48 82 143 47 54 105
122 130 152 57 67 81 89 96 89 7 0 15 10 17 23 l4 22 2 -22 c0 -13 6 -23 11
-23 6 0 22 -11 35 -25 l25 -24 0 -221 c0 -210 -1 -222 -21 -243 -74 -79 -76
-212 -4 -284 28 -28 40 -33 79 -33 63 0 100 21 131 73 33 57 35 155 5 205 -23
37 -75 72 -107 72 l-23 0 -2 768 c-2 599 -5 755 -14 712z m-40 -856 c21 -8 21
-43 0 -51 -8 -3 -23 1 -31 10 -13 13 -14 19 -3 31 14 18 13 18 34 10z m-496
-464 c106 -65 36 -245 -96 -245 -105 0 -140 134 -57 218 26 25 68 44 105 46 8
1 30 -8 48 -19z m621 -215 c38 -32 55 -83 48 -148 -4 -42 -10 -56 -41 -84 -38
-35 -71 -41 -109 -21 -76 40 -99 165 -43 231 44 51 100 60 145 22z"/>
<path d="M8792 6934 c-59 -41 -47 -99 59 -302 81 -154 218 -509 291 -757 71
-243 133 -479 148 -560 17 -96 45 -155 74 -155 42 0 59 33 58 107 -1 72 -7
115 -53 368 -78 424 -172 719 -336 1053 -116 233 -174 293 -241 246z"/>
<path d="M4905 6930 c3 -5 10 -10 16 -10 5 0 9 5 9 10 0 6 -7 10 -16 10 -8 0
-12 -4 -9 -10z"/>
<path d="M7143 6879 c-7 -7 -8 -21 -2 -42 5 -18 9 -79 10 -137 1 -79 3 -96 9
-70 14 57 23 186 16 224 -7 38 -15 43 -33 25z"/>
<path d="M2954 6724 c-38 -49 -90 -111 -115 -139 -25 -27 -56 -66 -69 -85 -14
-19 -29 -40 -35 -46 -36 -39 -77 -88 -123 -146 l-52 -68 0 -100 c0 -56 4 -99
8 -96 23 14 288 438 380 606 19 36 46 85 59 109 13 24 22 45 20 48 -3 2 -36
-35 -73 -83z"/>
<path d="M6950 6704 c0 -16 5 -36 10 -44 6 -10 7 -2 3 25 -7 49 -13 58 -13 19z"/>
<path d="M6981 6631 c-18 -32 -13 -38 27 -37 l37 1 3 -107 c1 -60 7 -108 12
-108 29 0 24 161 -6 225 -22 46 -56 58 -73 26z"/>
<path d="M4704 6586 c-4 -10 -16 -15 -36 -13 -43 3 -46 -19 -4 -27 19 -4 37
-13 40 -22 3 -8 10 -12 16 -9 7 4 7 13 0 26 -9 15 -7 19 5 19 10 0 15 7 13 17
-4 22 -27 28 -34 9z"/>
<path d="M5160 6560 c-24 -8 -23 -8 8 -9 17 -1 32 4 32 9 0 11 -5 11 -40 0z"/>
<path d="M6954 6420 c-5 -74 -6 -143 -1 -152 4 -11 3 -27 -3 -38 -7 -14 -7
-20 0 -20 5 0 10 -13 10 -30 0 -19 -5 -30 -14 -30 -15 0 -28 -48 -15 -56 5 -3
9 4 9 15 0 12 5 21 10 21 11 0 13 -39 4 -64 -3 -9 -15 -16 -25 -16 -15 0 -19
7 -19 40 0 22 -5 40 -11 40 -7 0 -10 -23 -9 -67 4 -88 3 -93 -14 -93 -21 0
-30 -20 -17 -33 16 -16 14 -40 -3 -34 -20 8 -28 -43 -10 -70 20 -31 18 -54 -6
-60 -27 -7 -25 -17 5 -37 21 -14 23 -20 14 -43 -7 -18 -7 -29 0 -31 6 -2 3
-20 -6 -47 -17 -45 -34 -50 -60 -17 -8 10 -13 11 -13 4 0 -7 9 -21 21 -33 21
-21 21 -29 -3 -33 -7 -1 -18 -5 -25 -9 -6 -4 -15 -2 -19 5 -6 9 -10 5 -14 -12
-4 -14 -2 -31 3 -38 5 -7 7 -16 3 -20 -4 -4 -14 1 -21 11 -8 11 -16 14 -19 8
-4 -6 -14 -7 -23 -4 -11 4 -14 3 -9 -5 4 -7 16 -12 27 -12 16 0 19 -4 14 -22
-4 -13 -12 -27 -17 -33 -7 -7 -8 -2 -3 13 3 12 2 22 -4 22 -5 0 -23 14 -39 30
-28 28 -92 45 -77 20 3 -5 19 -10 35 -10 35 0 43 -11 31 -42 l-9 -23 -11 28
c-10 26 -12 27 -27 13 -8 -9 -13 -20 -10 -25 3 -5 -1 -14 -8 -20 -10 -8 -16
-9 -21 -1 -10 17 -25 12 -25 -9 0 -15 -5 -18 -22 -14 -22 4 -22 4 -4 -11 10
-8 15 -20 11 -25 -3 -6 1 -14 9 -17 19 -7 21 -25 4 -42 -9 -9 -15 -9 -25 0
-12 9 -13 7 -8 -15 6 -22 4 -25 -12 -21 -23 6 -57 -26 -35 -33 6 -3 12 -11 12
-18 0 -7 6 -16 13 -18 9 -4 9 -7 -1 -15 -9 -6 -6 -11 13 -20 14 -6 25 -19 25
-28 0 -13 -4 -12 -26 5 -31 25 -48 27 -40 6 3 -8 1 -15 -4 -15 -5 0 -8 -31 -6
-70 3 -61 1 -72 -15 -81 -14 -7 -19 -6 -20 3 0 7 -5 3 -11 -9 -17 -35 -27 -27
-34 27 -5 41 -9 48 -20 39 -23 -19 -16 -47 21 -88 37 -40 42 -51 25 -51 -16 0
-70 52 -64 62 3 4 1 23 -5 41 -10 30 -15 33 -42 29 -17 -2 -33 -11 -36 -18 -6
-17 -30 -18 -36 -1 -3 9 -8 9 -21 -2 -15 -13 -18 -12 -23 8 -3 13 -11 20 -19
17 -10 -4 -14 3 -14 19 0 14 -4 25 -10 25 -5 0 -10 -6 -10 -14 0 -8 -6 -17
-12 -19 -10 -4 -10 -6 0 -6 6 -1 12 -10 12 -21 0 -22 -15 -27 -23 -7 -4 7 -8
3 -13 -11 -4 -14 -12 -21 -20 -18 -8 3 -14 -1 -14 -10 0 -11 -6 -13 -21 -9
-14 5 -25 2 -30 -6 -7 -11 -10 -9 -15 9 -4 12 -13 22 -20 22 -8 0 -14 5 -14
11 0 5 -5 7 -11 3 -7 -4 -19 3 -29 15 -16 22 -18 22 -53 7 -20 -8 -37 -19 -37
-25 0 -5 -9 -7 -19 -4 -13 3 -18 10 -13 21 5 15 4 15 -11 3 -12 -9 -30 -11
-62 -7 -38 6 -45 5 -45 -9 0 -9 -5 -13 -11 -10 -5 4 -9 14 -7 23 4 22 -21 52
-38 45 -8 -3 -14 -9 -14 -14 0 -5 -9 -18 -20 -29 l-20 -20 0 26 c0 16 4 23 12
18 19 -12 1 53 -21 75 -11 11 -22 17 -25 14 -3 -4 -6 8 -6 26 0 17 -7 42 -15
54 -8 13 -15 43 -15 67 -2 106 1 128 21 151 11 13 23 36 26 51 6 30 23 39 23
13 0 -9 7 -18 15 -21 15 -6 32 8 51 41 6 11 25 23 42 27 18 5 32 15 32 22 0
15 58 36 155 57 52 12 56 14 27 17 -21 2 -38 12 -48 28 -12 18 -20 22 -29 14
-7 -6 -11 -20 -8 -30 7 -27 -9 -25 -37 5 -28 30 -40 32 -40 5 0 -11 -4 -20
-10 -20 -5 0 -10 4 -10 8 0 5 -11 15 -25 22 -37 20 -31 26 25 26 28 0 56 6 62
12 7 7 21 12 31 12 13 0 17 5 14 15 -10 24 47 57 96 55 89 -5 127 -1 127 15 0
8 11 17 24 21 14 3 27 12 30 19 2 7 18 16 35 20 33 7 43 25 14 25 -10 0 -34
14 -53 30 -30 25 -37 28 -46 15 -9 -12 -13 -12 -25 -1 -8 8 -29 17 -46 21 -27
5 -37 2 -56 -19 -25 -27 -69 -33 -59 -8 4 11 0 13 -16 8 -15 -5 -21 -2 -24 11
-3 13 -11 3 -28 -30 -24 -49 -40 -67 -40 -48 0 6 -4 11 -10 11 -5 0 -10 -7
-10 -16 0 -10 -6 -14 -15 -10 -9 3 -15 0 -15 -9 0 -8 -7 -15 -15 -15 -8 0 -15
-4 -15 -10 0 -5 -7 -10 -15 -10 -17 0 -20 -25 -5 -35 6 -3 10 -11 10 -17 0 -7
-5 -6 -14 1 -11 10 -18 7 -31 -11 l-17 -23 7 23 c4 15 2 22 -7 22 -7 0 -20
-21 -28 -47 -8 -26 -21 -49 -28 -51 -7 -2 -10 2 -6 12 3 9 1 16 -6 16 -6 0 -8
5 -4 11 4 7 1 10 -7 7 -8 -3 -14 -11 -14 -19 0 -8 -3 -18 -6 -24 -4 -5 -9 -23
-13 -38 -5 -22 -11 -27 -25 -22 -28 8 -61 -38 -61 -86 0 -29 6 -42 27 -57 16
-11 25 -24 21 -28 -4 -4 -15 -1 -23 6 -22 18 -35 2 -40 -50 -3 -23 -10 -48
-16 -56 -6 -7 -8 -18 -5 -23 4 -5 2 -13 -4 -16 -14 -9 -42 15 -36 31 6 15 -18
26 -39 18 -15 -6 -21 7 -9 19 4 3 8 23 9 44 1 21 0 32 -2 26 -3 -7 -11 -13
-18 -13 -7 0 -16 6 -18 13 -4 8 -6 8 -6 -2 -1 -11 -5 -10 -15 4 -10 15 -11 23
-2 37 8 14 8 21 -3 27 -9 6 -10 11 -2 15 6 4 11 14 11 23 0 14 -4 13 -22 -4
-26 -24 -78 -21 -78 4 0 13 -3 13 -15 3 -12 -10 -18 -10 -30 0 -8 7 -15 19
-15 27 0 24 -32 117 -46 134 -8 8 -14 19 -14 24 0 5 -7 16 -15 26 -9 9 -17 32
-18 52 -3 35 -76 206 -89 207 -5 0 -8 -31 -8 -70 0 -55 3 -70 15 -70 8 0 17
-12 20 -27 16 -77 73 -240 111 -316 8 -16 14 -50 14 -77 0 -33 5 -50 15 -54 8
-3 15 -14 15 -25 0 -11 5 -23 10 -26 6 -3 10 -20 10 -36 0 -17 6 -32 15 -35 9
-4 15 -19 15 -38 0 -30 20 -70 46 -91 20 -16 64 -106 64 -129 0 -12 5 -27 12
-34 17 -17 22 -142 9 -204 -7 -28 -14 -104 -17 -167 -4 -64 -10 -123 -14 -132
-13 -24 2 -37 41 -37 49 0 78 -9 118 -39 33 -25 81 -111 81 -145 0 -16 15 -18
169 -18 l169 0 40 93 c84 193 203 440 240 495 46 70 86 92 167 92 107 -1 175
-50 175 -127 0 -37 -21 -102 -58 -184 -27 -61 -29 -68 -16 -98 16 -38 33 -36
53 5 8 16 16 23 19 16 5 -16 42 3 42 23 0 20 19 19 26 0 4 -8 17 -15 31 -15
22 0 24 3 18 31 -7 31 -7 31 30 27 31 -4 39 -1 48 19 5 13 14 23 18 23 59 0
29 -59 -49 -96 -114 -54 -178 -80 -240 -99 -63 -19 -64 -19 -98 -87 -19 -37
-34 -69 -34 -72 0 -2 42 -6 93 -8 60 -3 103 -10 124 -21 24 -13 58 -17 144
-17 106 0 113 1 143 27 17 14 58 39 91 55 82 38 185 40 264 3 43 -20 56 -23
63 -13 18 29 20 62 4 126 -9 37 -16 78 -16 93 0 14 -5 30 -12 37 -14 14 9 45
29 38 12 -5 17 6 14 27 -1 4 -2 33 -2 64 -1 39 -11 77 -29 118 -79 172 -94
206 -116 272 -37 113 -39 143 -15 207 18 50 21 79 21 234 0 97 7 242 15 322
17 176 19 365 4 426 -9 35 -9 54 1 83 11 33 9 47 -12 117 l-25 79 -9 -135z
m-884 -550 c0 -5 -4 -10 -10 -10 -5 0 -10 5 -10 10 0 6 5 10 10 10 6 0 10 -4
10 -10z m510 -532 c0 -24 -12 -23 -27 1 -11 17 -10 20 7 18 12 -1 20 -9 20
-19z m-292 -352 c3 -12 -1 -17 -10 -14 -7 3 -15 13 -16 22 -3 12 1 17 10 14 7
-3 15 -13 16 -22z m686 -111 c27 -55 27 -70 -2 -35 l-19 23 -19 -38 c-18 -38
-21 -39 -71 -40 -29 0 -53 3 -53 6 0 16 42 57 64 63 25 6 36 30 36 81 0 29 0
29 19 10 11 -11 31 -42 45 -70z m-194 -99 c6 -8 24 -16 38 -18 23 -3 28 -9 30
-38 3 -33 3 -34 -15 -17 -26 23 -27 23 -48 -22 -12 -28 -25 -41 -44 -44 -14
-3 -36 -8 -48 -12 -19 -6 -23 -4 -23 13 0 11 -8 23 -17 27 -14 5 -11 9 17 18
26 9 41 24 60 59 27 52 32 55 50 34z m60 -292 c0 -8 -4 -12 -10 -9 -5 3 -10
10 -10 16 0 5 5 9 10 9 6 0 10 -7 10 -16z"/>
<path d="M4590 6532 c0 -5 9 -34 19 -64 11 -31 27 -90 36 -132 9 -42 21 -76
26 -76 5 0 9 24 9 53 0 28 3 69 7 90 5 35 8 38 30 32 19 -4 23 -3 17 7 -21 33
-59 68 -74 68 -10 0 -23 7 -30 15 -13 16 -40 20 -40 7z"/>
<path d="M8349 6400 c-9 -5 -36 -39 -60 -76 l-43 -66 75 -72 c66 -63 134 -126
318 -292 30 -27 64 -58 76 -69 35 -33 227 -209 279 -256 27 -24 79 -71 115
-105 36 -33 88 -80 114 -104 l49 -44 -7 49 c-11 74 -23 91 -144 206 l-111 105
7 51 c3 28 3 62 0 76 -4 14 -127 137 -309 308 -167 156 -304 287 -306 291 -5
11 -33 9 -53 -2z m81 -260 c21 -19 60 -55 87 -80 26 -25 107 -99 179 -165 183
-169 209 -189 224 -170 23 28 32 15 10 -15 -12 -16 -25 -30 -28 -30 -4 0 -64
53 -133 118 -69 64 -174 162 -234 217 -210 193 -255 238 -249 247 4 6 29 -12
57 -39 28 -26 67 -64 87 -83z"/>
<path d="M4740 6378 c0 -18 27 -44 37 -34 4 4 -3 16 -15 29 -18 17 -22 18 -22
5z"/>
<path d="M4743 6279 c-18 -5 -33 -11 -33 -13 0 -1 11 -35 24 -74 35 -101 64
-149 98 -161 33 -12 33 -11 9 59 -11 30 -26 86 -33 124 -8 39 -19 71 -24 72
-5 1 -24 -2 -41 -7z"/>
<path d="M5490 6247 c-28 -64 -48 -159 -39 -184 8 -21 37 -43 57 -43 5 0 9 37
8 83 0 45 3 106 7 135 11 66 -6 70 -33 9z"/>
<path d="M6024 6156 c-50 -22 -51 -36 -2 -36 56 0 88 9 88 25 0 7 -10 15 -22
19 -29 7 -27 8 -64 -8z"/>
<path d="M5597 6084 c-24 -13 -28 -21 -25 -52 3 -32 7 -37 38 -45 34 -9 92 -5
138 9 18 5 24 2 29 -15 6 -24 9 -25 27 -9 11 10 7 21 -23 56 -59 71 -121 90
-184 56z"/>
<path d="M6012 5969 c-7 -12 -11 -24 -8 -27 3 -3 6 0 6 6 0 6 9 14 20 17 22 7
27 25 7 25 -7 0 -18 -9 -25 -21z"/>
<path d="M6858 5983 c7 -3 16 -2 19 1 4 3 -2 6 -13 5 -11 0 -14 -3 -6 -6z"/>
<path d="M5740 5939 c0 -5 5 -7 10 -4 6 3 10 8 10 11 0 2 -4 4 -10 4 -5 0 -10
-5 -10 -11z"/>
<path d="M6151 5847 c1 -18 3 -24 6 -14 2 9 9 17 14 17 15 0 10 17 -6 24 -12
4 -15 -2 -14 -27z"/>
<path d="M6295 5831 c-3 -6 3 -14 12 -20 10 -6 13 -11 8 -11 -6 0 -9 -17 -7
-40 3 -30 0 -41 -12 -46 -26 -10 -18 -21 15 -21 20 0 37 -7 46 -19 9 -12 23
-18 38 -16 17 2 25 -1 25 -12 0 -9 5 -16 10 -16 6 0 10 -11 10 -24 0 -19 4
-23 20 -19 15 4 20 0 20 -14 0 -11 6 -28 14 -39 20 -27 37 -8 43 49 5 37 2 47
-16 59 -17 12 -20 22 -16 41 4 14 2 28 -4 31 -6 4 -11 18 -11 30 0 31 -22 48
-53 41 -14 -4 -35 -4 -46 0 -23 7 -29 35 -8 35 8 0 7 4 -3 10 -23 15 -30 12
-31 -12 l0 -23 -11 23 c-11 23 -32 29 -43 13z"/>
<path d="M5516 5724 c-4 -9 -4 -19 -1 -22 2 -3 7 3 11 12 4 9 4 19 1 22 -2 3
-7 -3 -11 -12z"/>
<path d="M5342 5693 c-20 -4 -22 -8 -16 -36 4 -18 7 -45 8 -62 1 -20 6 -30 16
-30 11 0 15 10 13 34 -1 24 5 39 20 51 13 11 18 23 14 33 -6 17 -12 18 -55 10z"/>
<path d="M6113 5673 c9 -2 25 -2 35 0 9 3 1 5 -18 5 -19 0 -27 -2 -17 -5z"/>
<path d="M5436 5651 c-4 -7 -5 -15 -2 -18 9 -9 19 4 14 18 -4 11 -6 11 -12 0z"/>
<path d="M5340 5529 c0 -5 5 -7 10 -4 6 3 10 8 10 11 0 2 -4 4 -10 4 -5 0 -10
-5 -10 -11z"/>
<path d="M6560 5530 c0 -5 7 -10 16 -10 8 0 12 5 9 10 -3 6 -10 10 -16 10 -5
0 -9 -4 -9 -10z"/>
<path d="M6533 5475 c6 -19 12 -33 15 -31 7 7 -9 66 -18 66 -4 0 -3 -16 3 -35z"/>
<path d="M5970 5459 c-19 -4 -54 -9 -77 -10 -29 -2 -43 -7 -43 -16 0 -8 4 -12
8 -9 4 2 14 1 21 -4 17 -10 5 -31 -13 -24 -7 3 -18 -7 -24 -21 -7 -14 -19 -28
-27 -31 -9 -4 -15 -19 -15 -36 0 -17 4 -27 10 -23 5 3 7 0 4 -8 -8 -21 12 -30
38 -16 18 10 24 9 38 -9 l17 -20 26 25 c24 24 27 25 42 9 22 -21 28 -20 20 4
-8 24 2 26 26 4 14 -12 22 -13 38 -4 23 12 28 36 9 42 -6 2 -12 12 -14 21 -2
14 0 15 20 2 14 -9 26 -11 36 -5 9 6 10 10 3 10 -9 0 -8 8 3 28 20 38 18 45
-16 75 -35 32 -34 32 -55 11 -14 -14 -17 -15 -28 -2 -9 11 -21 13 -47 7z m-44
-99 c4 -12 6 -13 14 0 5 8 12 12 15 9 3 -4 -10 -30 -30 -59 -19 -28 -35 -44
-35 -35 0 9 7 23 15 31 20 20 19 38 -1 30 -40 -15 -67 -19 -60 -7 4 6 16 11
26 11 18 0 33 15 36 35 0 6 2 21 4 35 3 23 3 22 7 -5 2 -16 6 -37 9 -45z m108
24 c10 -25 -1 -29 -14 -5 -6 12 -7 21 -1 21 5 0 12 -7 15 -16z"/>
<path d="M5785 5440 c-3 -5 3 -10 14 -10 26 0 27 -16 2 -29 -22 -12 -31 -5
-32 23 0 12 -6 1 -13 -24 -6 -25 -17 -44 -24 -42 -7 1 -12 -9 -12 -26 0 -20 7
-33 25 -42 13 -7 27 -21 31 -32 3 -10 12 -18 20 -18 12 0 12 4 2 23 -7 12 -17
25 -21 28 -4 3 8 29 28 58 19 29 35 61 35 71 0 25 -42 41 -55 20z"/>
<path d="M5686 5361 c-19 -21 -12 -28 13 -12 7 5 12 14 9 21 -2 7 -10 4 -22
-9z"/>
<path d="M9440 5270 c0 -11 17 -39 39 -63 21 -23 52 -64 68 -91 33 -56 53 -69
53 -34 0 31 -50 111 -103 166 -46 47 -57 51 -57 22z"/>
<path d="M6022 5216 c1 -10 8 -17 13 -17 15 1 12 24 -3 29 -9 3 -13 -2 -10
-12z"/>
<path d="M5830 5210 c0 -5 6 -10 14 -10 8 0 18 5 21 10 3 6 -3 10 -14 10 -12
0 -21 -4 -21 -10z"/>
<path d="M6400 5175 c7 -8 17 -15 22 -15 6 0 5 7 -2 15 -7 8 -17 15 -22 15 -6
0 -5 -7 2 -15z"/>
<path d="M6300 5130 c0 -5 5 -10 10 -10 6 0 10 5 10 10 0 6 -4 10 -10 10 -5 0
-10 -4 -10 -10z"/>
<path d="M6301 5078 c-1 -21 2 -38 7 -38 12 0 38 20 25 20 -6 0 -16 12 -21 28
-10 27 -10 26 -11 -10z"/>
<path d="M6360 5081 c5 -19 7 -37 5 -41 -3 -5 -2 -22 2 -40 5 -27 7 -30 16
-15 6 12 6 20 -3 25 -7 4 -9 13 -5 20 6 9 9 9 16 -1 7 -11 9 -10 9 4 0 10 -5
23 -10 30 -6 7 -17 21 -25 32 -13 18 -14 17 -5 -14z"/>
<path d="M6237 5053 c-12 -12 -7 -22 8 -17 8 4 15 10 15 15 0 11 -14 12 -23 2z"/>
<path d="M6176 5034 c-4 -10 -1 -14 6 -12 15 5 23 28 10 28 -5 0 -13 -7 -16
-16z"/>
<path d="M6046 5021 c-4 -7 -5 -15 -2 -18 9 -9 19 4 14 18 -4 11 -6 11 -12 0z"/>
<path d="M1634 4975 c3 -9 12 -41 20 -73 27 -100 133 -416 166 -493 80 -184
172 -377 204 -428 13 -20 40 -67 61 -106 53 -96 209 -325 308 -453 70 -91 154
-189 282 -331 52 -58 297 -283 391 -358 186 -152 302 -234 494 -350 87 -53
410 -223 424 -223 2 0 37 -15 78 -34 239 -110 657 -234 943 -280 308 -50 778
-71 1057 -47 450 38 909 144 1242 288 44 19 118 50 163 68 99 41 391 199 523
283 99 64 290 201 290 208 0 3 -42 -18 -94 -45 -109 -58 -199 -91 -347 -125
-77 -18 -128 -38 -188 -72 -233 -131 -641 -287 -946 -363 -341 -84 -796 -128
-1159 -110 -183 9 -198 10 -411 40 -181 25 -232 35 -395 76 -119 30 -185 50
-395 119 -116 39 -345 141 -345 154 0 5 10 12 23 16 12 3 51 20 87 37 184 85
329 131 595 188 208 44 368 59 630 59 251 0 425 -14 784 -60 480 -63 611 -77
879 -91 316 -17 634 6 844 61 296 77 520 214 654 401 72 101 97 151 125 260
27 105 23 263 -9 347 -53 138 -158 255 -287 318 -77 38 -82 39 -185 38 -86 0
-120 -6 -190 -28 -114 -38 -209 -86 -307 -157 -45 -32 -89 -62 -99 -66 -35
-13 -4 59 101 235 120 200 127 224 68 249 -31 12 -60 14 -154 8 l-117 -7 -3
81 c-4 86 -18 114 -73 155 -37 28 -121 28 -158 1 -33 -24 -78 -104 -78 -137 0
-45 22 -92 62 -134 48 -50 49 -47 -37 -188 -75 -125 -81 -141 -64 -173 13 -23
11 -27 -16 -50 -87 -72 -209 -102 -276 -68 -30 16 -30 16 -27 93 l3 77 66 7
c82 8 138 36 200 99 128 132 115 325 -26 390 -178 82 -419 -102 -467 -356 -11
-58 -15 -65 -40 -70 -41 -10 -46 -1 -36 57 24 128 -11 239 -88 284 -43 25 -49
26 -174 22 -72 -2 -130 -2 -130 -1 0 2 43 88 95 191 129 256 173 380 147 418
-15 23 -53 34 -116 34 -62 0 -66 -2 -89 -32 -52 -69 -123 -217 -342 -703 -145
-323 -176 -387 -210 -420 -19 -20 -82 -65 -90 -65 -20 0 9 81 58 159 168 270
174 283 137 316 -20 18 -35 20 -160 18 l-138 -2 1 72 c0 48 -5 83 -16 104 -51
98 -182 110 -244 23 -15 -22 -36 -40 -46 -40 -49 0 -108 -54 -141 -128 -10
-23 -23 -42 -28 -42 -5 0 -27 9 -50 21 -34 17 -55 20 -117 17 -66 -3 -85 -8
-135 -38 -69 -41 -130 -117 -185 -230 -48 -97 -61 -145 -61 -214 0 -102 55
-179 128 -179 62 0 103 19 188 87 l79 64 7 -50 c10 -65 32 -104 68 -123 63
-32 141 -9 222 68 83 78 167 209 168 262 0 20 71 137 105 176 13 14 31 19 67
19 26 0 48 -2 48 -6 0 -3 -18 -32 -41 -65 -135 -199 -157 -368 -56 -429 55
-34 131 -21 216 36 23 15 43 25 44 23 2 -2 9 -24 16 -48 16 -55 96 -137 165
-170 114 -53 265 -37 380 40 91 61 106 78 192 212 71 111 72 112 117 119 25 3
55 9 66 13 15 5 23 1 27 -12 15 -51 53 -109 96 -148 114 -102 281 -114 419
-29 65 40 177 143 183 169 4 14 2 34 -4 45 -9 17 -4 32 27 83 21 34 55 86 76
114 37 52 39 53 87 53 28 0 50 -3 50 -7 0 -3 -11 -21 -25 -39 -14 -18 -25 -35
-25 -38 0 -2 -16 -32 -36 -64 -41 -70 -74 -170 -74 -227 0 -90 63 -150 150
-142 44 4 114 40 376 193 107 62 160 78 252 72 131 -7 279 -110 322 -225 30
-82 27 -183 -8 -270 -35 -85 -46 -102 -119 -176 -87 -88 -214 -146 -388 -179
-101 -19 -446 -16 -625 6 -159 18 -567 84 -725 116 -890 181 -1294 209 -1745
120 -348 -69 -759 -281 -1044 -540 -34 -30 -75 -68 -93 -84 l-31 -28 -154 102
c-157 105 -338 242 -418 317 -25 23 -63 56 -85 73 -61 48 -248 242 -359 370
-189 221 -315 401 -479 688 -59 102 -189 383 -235 507 -56 151 -102 288 -102
303 0 9 147 12 704 12 l705 0 7 -22 c26 -88 246 -449 329 -542 30 -33 36 -30
41 21 2 21 11 45 21 53 10 8 24 27 30 43 12 25 9 33 -50 120 -79 117 -153 246
-207 365 l-43 92 -865 0 c-772 0 -864 -2 -858 -15z m3586 -757 c0 -5 -4 -8
-10 -8 -5 0 -10 10 -10 23 0 18 2 19 10 7 5 -8 10 -18 10 -22z m2060 6 c0 -8
-4 -12 -10 -9 -5 3 -10 10 -10 16 0 5 5 9 10 9 6 0 10 -7 10 -16z m-272 -97
c27 -57 -24 -153 -102 -192 -57 -29 -94 -32 -103 -10 -10 28 54 141 109 190
56 51 76 53 96 12z m-1868 -47 c11 -11 20 -27 20 -35 0 -23 -57 -133 -98 -190
-31 -42 -37 -58 -37 -102 0 -47 -4 -56 -40 -92 -21 -23 -42 -38 -46 -33 -9 8
7 100 27 161 8 25 39 94 68 155 29 61 56 121 60 134 9 27 20 28 46 2z m1123
-30 c-3 -59 -14 -100 -27 -100 -24 0 -116 43 -116 54 0 18 115 88 135 82 6 -2
9 -18 8 -36z m-1455 -32 c24 -24 14 -53 -48 -143 -83 -121 -159 -205 -185
-205 -20 0 -19 24 6 101 58 179 172 302 227 247z m1303 -144 c27 -15 56 -36
66 -46 17 -19 16 -23 -27 -105 -47 -88 -136 -196 -206 -251 -56 -44 -105 -44
-145 -1 -42 45 -39 87 12 185 48 92 114 199 143 232 18 21 27 23 65 18 24 -3
65 -18 92 -32z m-704 -821 c49 -32 38 -122 -17 -150 -23 -11 -23 -12 -5 -19
39 -14 55 -36 55 -76 0 -31 3 -38 20 -38 28 0 25 -25 -6 -49 -69 -55 -134 -4
-134 105 0 19 -6 34 -15 38 -8 3 -15 12 -15 20 0 7 7 16 15 20 21 8 21 113 -1
137 -9 10 -13 23 -9 29 9 14 81 3 112 -17z m-136 -120 c1 -158 4 -184 24 -196
31 -17 1 -27 -81 -27 -76 0 -101 8 -74 25 6 4 10 67 10 156 0 124 -3 151 -15
155 -35 14 -10 24 60 24 l75 0 1 -137z m-304 84 c27 -80 76 -207 99 -255 14
-29 24 -55 22 -58 -3 -2 -40 -7 -83 -11 l-78 -6 7 27 c12 48 0 65 -39 59 -28
-4 -35 -2 -35 11 0 8 11 18 25 22 31 8 31 10 -5 114 -41 118 -40 128 13 132
57 4 62 2 74 -35z m821 -127 c15 -102 29 -171 38 -182 22 -23 7 -27 -79 -21
-76 6 -91 15 -66 40 6 6 9 21 7 34 -2 20 -10 25 -41 27 -44 4 -46 25 -2 30
l28 4 -7 61 c-4 34 -9 88 -13 120 l-6 58 58 -3 59 -3 24 -165z m227 140 c11 0
26 -4 34 -9 12 -8 13 -12 1 -25 -11 -14 -10 -35 5 -130 16 -101 16 -117 3
-157 -14 -42 -16 -44 -54 -44 l-38 0 -23 130 c-12 72 -22 141 -23 155 0 14 -7
38 -15 54 -8 15 -15 31 -15 34 0 2 24 2 53 -2 28 -3 61 -6 72 -6z m-1356 -32
c4 -13 11 -44 15 -70 6 -38 4 -48 -7 -48 -8 0 -20 13 -27 30 -8 18 -27 36 -51
47 -50 23 -53 46 -4 37 27 -5 36 -3 41 10 9 23 23 20 33 -6z m1541 -3 c0 -8
-9 -16 -19 -20 -19 -6 -35 -33 -66 -117 -10 -27 -22 -48 -26 -48 -14 0 -11 20
11 78 23 59 26 98 8 104 -6 2 -9 8 -6 14 9 15 98 4 98 -11z m-1670 -19 c0 -8
-4 -18 -10 -21 -15 -9 -12 -37 11 -134 36 -152 39 -160 59 -166 11 -4 20 -13
20 -21 0 -18 -58 -19 -97 -2 -111 49 -139 248 -47 333 30 27 64 33 64 11z
m1918 -1 c5 -4 9 -39 22 -190 7 -71 17 -140 23 -152 6 -13 8 -25 5 -28 -7 -8
-158 17 -158 26 0 4 5 11 10 14 6 3 10 19 10 35 0 25 -4 29 -32 32 -43 4 -46
33 -3 33 29 0 29 1 27 45 -2 25 -7 74 -12 110 -12 82 -4 93 59 84 25 -4 47 -8
49 -9z m-814 -40 c-3 -11 -17 -57 -31 -102 -26 -80 -26 -83 -9 -102 17 -19 17
-21 2 -27 -16 -6 -84 1 -93 9 -2 2 9 18 25 35 18 19 41 68 63 131 20 59 37 95
41 88 4 -7 5 -21 2 -32z m-790 -107 l-16 -102 22 -18 c30 -24 17 -38 -36 -38
-48 0 -52 5 -29 30 9 10 22 62 31 126 19 134 22 145 35 122 6 -11 4 -51 -7
-120z m1814 125 l54 -6 30 -66 c58 -126 78 -190 78 -250 0 -32 -2 -60 -5 -63
-10 -10 -68 7 -76 22 -19 33 -86 179 -113 245 -16 39 -37 79 -48 91 -32 36
-23 40 80 27z m195 -19 c43 -8 46 -18 12 -50 -21 -19 -25 -32 -25 -79 0 -41
-3 -55 -12 -52 -8 2 -13 26 -14 64 -1 33 -7 69 -13 81 -23 42 -16 47 52 36z
m-569 -163 c-34 -87 -35 -93 -20 -110 23 -25 8 -33 -43 -25 -43 7 -55 28 -22
39 11 3 21 11 24 18 3 7 21 50 39 97 56 137 51 129 55 99 2 -15 -12 -67 -33
-118z m321 -36 c-6 -77 -4 -95 9 -108 27 -26 18 -37 -28 -37 -49 0 -68 16 -42
35 20 15 36 66 36 116 0 54 11 100 22 93 6 -4 8 -41 3 -99z m-1889 11 c9 -23
-26 -86 -57 -102 -38 -19 -40 2 -5 36 14 12 28 35 31 51 7 31 22 38 31 15z"/>
<path d="M8086 4948 c-27 -72 -165 -318 -233 -415 -70 -102 -129 -238 -109
-250 16 -11 36 -59 36 -89 0 -14 4 -24 8 -22 18 7 133 149 213 264 46 67 120
189 164 272 l80 152 698 0 c674 0 697 -1 697 -19 0 -46 -141 -418 -219 -581
-105 -216 -280 -509 -388 -650 -23 -30 -59 -78 -80 -106 -21 -28 -92 -113
-157 -188 -109 -125 -121 -143 -146 -215 -30 -90 -76 -170 -137 -243 -24 -27
-43 -52 -43 -55 0 -13 98 76 244 222 221 221 448 501 577 714 24 39 61 100 82
134 115 189 291 578 370 822 25 75 77 270 77 287 0 5 -386 8 -859 8 l-858 0
-17 -42z"/>
<path d="M7124 4936 c2 -12 19 -56 39 -97 83 -172 107 -225 107 -233 0 -5 14
-44 31 -86 27 -64 37 -79 63 -89 60 -22 104 -80 121 -159 l7 -33 101 3 101 3
34 85 c53 131 92 243 87 250 -2 4 -41 28 -87 55 -46 26 -92 56 -103 65 -11 9
-51 33 -90 52 -38 19 -121 68 -184 107 -123 79 -167 101 -205 101 -20 0 -24
-5 -22 -24z"/>
<path d="M5015 4854 c-33 -25 -82 -56 -109 -69 -26 -13 -71 -42 -100 -64 -46
-36 -187 -108 -243 -125 -14 -5 -25 -18 -29 -34 -23 -105 -71 -200 -136 -269
l-51 -53 281 0 c281 0 282 0 296 23 8 12 22 81 31 152 9 72 20 142 25 158 5
15 12 54 16 88 4 38 15 72 30 92 12 18 32 51 42 73 11 23 25 45 31 48 6 4 11
11 11 17 0 21 -39 6 -95 -37z m-93 -209 c0 -5 -5 -11 -11 -13 -6 -2 -11 4 -11
13 0 9 5 15 11 13 6 -2 11 -8 11 -13z m-112 -49 c0 -3 -4 -8 -10 -11 -5 -3
-10 -1 -10 4 0 6 5 11 10 11 6 0 10 -2 10 -4z m-57 -198 c7 -25 3 -33 -12 -23
-13 8 -15 45 -2 45 5 0 11 -10 14 -22z"/>
<path d="M4120 4840 c-58 -9 -160 -44 -235 -81 -77 -38 -192 -116 -211 -143
-35 -50 0 -103 61 -93 19 3 35 4 35 1 0 -2 -31 -73 -69 -157 -38 -83 -72 -163
-76 -177 -4 -14 -44 -106 -87 -205 -44 -99 -91 -209 -104 -245 -14 -36 -34
-83 -44 -106 -25 -51 -26 -105 -1 -135 17 -21 28 -24 83 -24 81 0 114 23 159
110 19 36 37 65 41 65 3 0 12 -17 19 -37 6 -20 33 -58 59 -84 38 -38 56 -49
94 -54 113 -17 214 24 321 130 81 80 127 165 145 265 22 121 -9 203 -100 263
-27 17 -50 34 -50 37 1 3 28 23 61 45 83 55 182 164 221 243 43 87 51 195 20
266 -43 97 -176 142 -342 116z m174 -124 c72 -30 85 -101 38 -201 -53 -111
-199 -224 -368 -285 -95 -34 -101 -28 -60 55 18 39 36 79 40 90 3 11 26 65 52
120 25 55 57 126 71 157 18 40 33 60 52 67 39 14 137 13 175 -3z m-174 -672
c87 -51 99 -123 39 -240 -60 -119 -173 -207 -267 -208 -36 -1 -48 4 -68 27
-27 31 -30 61 -12 119 15 49 71 97 153 129 74 30 100 66 71 98 -29 32 -96 28
-175 -9 -35 -17 -66 -28 -69 -25 -8 8 29 96 50 117 18 18 31 20 132 16 89 -2
118 -7 146 -24z"/>
<path d="M6286 4505 c-8 -22 3 -40 16 -27 7 7 7 16 1 27 -9 16 -10 16 -17 0z"/>
<path d="M5032 4465 c-6 -13 -7 -27 -3 -30 5 -2 11 8 14 23 7 35 3 38 -11 7z"/>
<path d="M5007 4400 c-3 -11 -1 -23 5 -26 5 -3 2 -14 -8 -25 -16 -18 -16 -19
4 -19 12 0 22 5 22 10 0 21 2 25 15 32 18 11 7 48 -15 48 -10 0 -20 -9 -23
-20z"/>
</g>
</svg>
